<svg width="1648" height="243" viewBox="0 0 1648 243" fill="none" xmlns="http://www.w3.org/2000/svg">
<path opacity="0.19" d="M20 166.887C97.7658 144.196 151.417 32.7203 453 118.887C1209 334.887 1151 -57.1133 1628 118.887" stroke="#8AA99C" stroke-width="39" stroke-linecap="round" stroke-dasharray="25 25"/>
<circle cx="1416.11" cy="72.1104" r="72.1104" fill="#DEE883"/>
<path fill-rule="evenodd" clip-rule="evenodd" d="M1436.65 53.9593L1427.38 44.6826L1420.67 51.394L1429.95 60.6741L1436.65 53.9593ZM1392.32 92.757C1392.21 92.7673 1392.11 92.7707 1392.01 92.7707C1391.1 92.7707 1390.22 92.4126 1389.57 91.7618C1388.85 91.0387 1388.49 90.0332 1388.57 89.0173L1389.88 74.6581C1390.02 73.0844 1390.72 71.5968 1391.84 70.4777L1422.82 39.5002C1425.24 37.0726 1429.62 37.1931 1432.17 39.7378L1441.6 49.166L1441.6 49.1695C1444.24 51.8072 1444.35 56.0013 1441.84 58.5151L1410.86 89.496C1409.74 90.6151 1408.25 91.3107 1406.68 91.4553L1392.32 92.757ZM1392.01 99.6587H1440.21C1442.11 99.6587 1443.66 101.208 1443.66 103.102C1443.66 104.996 1442.11 106.546 1440.21 106.546H1392.01C1390.11 106.546 1388.56 104.996 1388.56 103.102C1388.56 101.208 1390.11 99.6587 1392.01 99.6587Z" fill="#244034"/>
<mask id="mask0_29_1440" style="mask-type:luminance" maskUnits="userSpaceOnUse" x="1388" y="37" width="56" height="70">
<path fill-rule="evenodd" clip-rule="evenodd" d="M1436.65 53.9593L1427.38 44.6826L1420.67 51.394L1429.95 60.6741L1436.65 53.9593ZM1392.32 92.757C1392.21 92.7673 1392.11 92.7707 1392.01 92.7707C1391.1 92.7707 1390.22 92.4126 1389.57 91.7618C1388.85 91.0387 1388.49 90.0332 1388.57 89.0173L1389.88 74.6581C1390.02 73.0844 1390.72 71.5968 1391.84 70.4777L1422.82 39.5002C1425.24 37.0726 1429.62 37.1931 1432.17 39.7378L1441.6 49.166L1441.6 49.1695C1444.24 51.8072 1444.35 56.0013 1441.84 58.5151L1410.86 89.496C1409.74 90.6151 1408.25 91.3107 1406.68 91.4553L1392.32 92.757ZM1392.01 99.6587H1440.21C1442.11 99.6587 1443.66 101.208 1443.66 103.102C1443.66 104.996 1442.11 106.546 1440.21 106.546H1392.01C1390.11 106.546 1388.56 104.996 1388.56 103.102C1388.56 101.208 1390.11 99.6587 1392.01 99.6587Z" fill="white"/>
</mask>
<g mask="url(#mask0_29_1440)">
<rect x="1374.79" y="30.7891" width="82.6433" height="82.6433" fill="#244034"/>
</g>
<circle cx="782.5" cy="179.5" r="63.5" fill="#DEE883"/>
<path d="M800.693 151.268V161.306H810.732L800.693 151.268Z" fill="#244034"/>
<path d="M776.814 163.58C778.07 163.58 779.088 162.561 779.088 161.305C779.088 160.049 778.07 159.031 776.814 159.031C775.558 159.031 774.54 160.049 774.54 161.305C774.54 162.561 775.558 163.58 776.814 163.58Z" fill="#244034"/>
<path d="M776.814 168.128C775.132 168.128 773.662 169.044 772.876 170.402H780.751C779.965 169.044 778.495 168.128 776.814 168.128Z" fill="#244034"/>
<path d="M798.419 165.854C797.162 165.854 796.145 164.836 796.145 163.58V149.935H759.757C755.995 149.935 752.935 152.995 752.935 156.757V202.242C752.935 206.004 755.995 209.064 759.757 209.064H805.242C809.004 209.064 812.064 206.004 812.064 202.242V165.854H798.419ZM769.991 161.306C769.991 157.543 773.052 154.483 776.814 154.483C780.576 154.483 783.637 157.543 783.637 161.306C783.637 162.852 783.1 164.264 782.229 165.41C784.451 167.07 785.911 169.696 785.911 172.677C785.911 173.933 784.894 174.951 783.637 174.951H769.991C768.734 174.951 767.717 173.933 767.717 172.677C767.717 169.696 769.177 167.07 771.399 165.41C770.528 164.264 769.991 162.852 769.991 161.306ZM771.599 197.09L765.534 203.155C765.09 203.599 764.508 203.821 763.926 203.821C763.344 203.821 762.762 203.599 762.318 203.155L759.286 200.123C758.398 199.235 758.398 197.795 759.286 196.907C760.175 196.019 761.614 196.019 762.502 196.907L763.926 198.331L768.383 193.874C769.272 192.986 770.711 192.986 771.599 193.874C772.488 194.763 772.488 196.203 771.599 197.09ZM771.599 185.719L765.534 191.783C765.09 192.228 764.508 192.45 763.926 192.45C763.344 192.45 762.762 192.228 762.318 191.783L759.286 188.752C758.398 187.864 758.398 186.424 759.286 185.536C760.175 184.648 761.614 184.648 762.502 185.536L763.926 186.96L768.383 182.503C769.272 181.615 770.711 181.615 771.599 182.503C772.488 183.392 772.488 184.832 771.599 185.719ZM802.968 199.968H782.5C781.242 199.968 780.225 198.949 780.225 197.693C780.225 196.437 781.242 195.419 782.5 195.419H802.968C804.225 195.419 805.242 196.437 805.242 197.693C805.242 198.949 804.225 199.968 802.968 199.968ZM802.968 188.596H782.5C781.242 188.596 780.225 187.578 780.225 186.322C780.225 185.066 781.242 184.048 782.5 184.048H802.968C804.225 184.048 805.242 185.066 805.242 186.322C805.242 187.578 804.225 188.596 802.968 188.596Z" fill="#244034"/>
<circle cx="239.078" cy="92.0784" r="71.0784" fill="#DEE883"/>
<path fill-rule="evenodd" clip-rule="evenodd" d="M232.29 88.6838C239.777 88.6838 245.866 82.5946 245.866 75.107C245.866 67.6195 239.777 61.5303 232.29 61.5303C224.802 61.5303 218.713 67.6195 218.713 75.107C218.713 82.5946 224.802 88.6838 232.29 88.6838ZM271.853 65.7581C270.438 64.5294 268.296 64.6753 267.064 66.0907L260.731 73.3713L258.579 70.9648C257.333 69.5664 255.188 69.4476 253.786 70.7C252.391 71.9491 252.269 74.0976 253.521 75.4926L258.236 80.7638C258.881 81.4834 259.801 81.8941 260.765 81.8941H260.788C261.762 81.8873 262.689 81.463 263.327 80.7299L272.189 70.5473C273.418 69.1319 273.269 66.9868 271.853 65.7581ZM256.049 119.232C256.049 121.105 254.532 122.626 252.655 122.626H211.924C210.047 122.626 208.53 121.105 208.53 119.232C208.53 106.13 219.191 95.4722 232.29 95.4722C245.388 95.4722 256.049 106.13 256.049 119.232Z" fill="#244034"/>
<mask id="mask1_29_1440" style="mask-type:luminance" maskUnits="userSpaceOnUse" x="208" y="61" width="66" height="62">
<path fill-rule="evenodd" clip-rule="evenodd" d="M232.29 88.6838C239.777 88.6838 245.866 82.5946 245.866 75.107C245.866 67.6195 239.777 61.5303 232.29 61.5303C224.802 61.5303 218.713 67.6195 218.713 75.107C218.713 82.5946 224.802 88.6838 232.29 88.6838ZM271.853 65.7581C270.438 64.5294 268.296 64.6753 267.064 66.0907L260.731 73.3713L258.579 70.9648C257.333 69.5664 255.188 69.4476 253.786 70.7C252.391 71.9491 252.269 74.0976 253.521 75.4926L258.236 80.7638C258.881 81.4834 259.801 81.8941 260.765 81.8941H260.788C261.762 81.8873 262.689 81.463 263.327 80.7299L272.189 70.5473C273.418 69.1319 273.269 66.9868 271.853 65.7581ZM256.049 119.232C256.049 121.105 254.532 122.626 252.655 122.626H211.924C210.047 122.626 208.53 121.105 208.53 119.232C208.53 106.13 219.191 95.4722 232.29 95.4722C245.388 95.4722 256.049 106.13 256.049 119.232Z" fill="white"/>
</mask>
<g mask="url(#mask1_29_1440)">
<rect x="198.348" y="51.3477" width="81.4606" height="81.4606" fill="#244034"/>
</g>
</svg>
